<svg width="113" height="112" fill="none" xmlns="http://www.w3.org/2000/svg"><path d="M55.93 13h-4.382V.636h4.42c1.243 0 2.313.248 3.21.743a5.009 5.009 0 012.071 2.119c.487.922.73 2.024.73 3.308 0 1.288-.243 2.395-.73 3.32a5.02 5.02 0 01-2.082 2.132c-.902.495-1.98.742-3.236.742zm-1.768-2.24h1.66c.773 0 1.423-.136 1.95-.41.531-.278.93-.707 1.196-1.286.27-.584.404-1.336.404-2.258 0-.913-.135-1.66-.404-2.24-.266-.58-.663-1.006-1.19-1.28-.527-.273-1.177-.41-1.95-.41h-1.666v7.884zm16.262 4.419l5.029-11.295 7.61 3.389-.876 1.968-5.223-2.325-1.198 2.691 4.831 2.151-.876 1.97-4.832-2.152-1.2 2.697 5.244 2.335-.876 1.97-7.633-3.4zm15.513 9.325l9.188-8.273 1.749 1.943-7.586 6.83 3.546 3.94-1.601 1.442-5.296-5.882zm23.744 16.051l-11.758 3.82-.808-2.485 11.758-3.82.808 2.485zm-3.005 26.853l.276-2.63c.345-.012.658-.078.938-.199a2.32 2.32 0 00.744-.498c.213-.213.385-.466.517-.76.132-.289.216-.61.253-.962.067-.637-.033-1.208-.3-1.713-.262-.505-.68-.92-1.253-1.243-.569-.322-1.28-.529-2.132-.618-.877-.092-1.627-.04-2.251.158-.624.201-1.113.522-1.467.963-.354.44-.563.97-.628 1.59a3.25 3.25 0 00.036.982c.061.31.167.59.318.84.156.252.354.467.594.646.24.183.521.321.843.416l-.289 2.628a4.786 4.786 0 01-1.579-.682 4.948 4.948 0 01-1.285-1.233 5.149 5.149 0 01-.802-1.724c-.17-.649-.214-1.368-.131-2.156.115-1.097.466-2.051 1.053-2.864.587-.808 1.377-1.413 2.37-1.815.993-.397 2.158-.526 3.495-.385 1.34.14 2.455.513 3.342 1.116.888.603 1.532 1.363 1.934 2.28.405.916.551 1.915.438 2.995a6.347 6.347 0 01-.509 1.95 5.04 5.04 0 01-1.047 1.535c-.43.432-.937.768-1.52 1.006-.584.242-1.237.368-1.958.377zm-3.023 17.952l-10.708-6.182 1.307-2.264 10.708 6.182-1.307 2.264zM80.687 99.53c-.792-1.091-1.26-2.17-1.402-3.235-.146-1.064-.01-2.055.406-2.974.416-.914 1.065-1.692 1.947-2.333.889-.645 1.833-1.023 2.833-1.133 1-.11 1.983.07 2.95.536.965.468 1.843 1.245 2.634 2.332.792 1.091 1.261 2.168 1.407 3.231.145 1.064.01 2.052-.405 2.966-.413.917-1.064 1.698-1.953 2.344-.883.641-1.824 1.017-2.824 1.126-1 .116-1.984-.06-2.95-.527-.97-.465-1.85-1.243-2.643-2.334zm2.144-1.558c.513.706 1.052 1.225 1.616 1.556.561.334 1.123.488 1.686.462.563-.026 1.1-.225 1.612-.596.511-.372.866-.821 1.065-1.349.198-.527.227-1.11.087-1.75-.144-.636-.473-1.307-.987-2.014-.513-.706-1.05-1.227-1.61-1.56-.565-.332-1.129-.484-1.692-.458-.563.026-1.1.225-1.611.596-.511.371-.866.82-1.065 1.348-.199.528-.226 1.11-.082 1.746.14.64.468 1.312.981 2.019zm-17.833 9.534c.148.466.43.793.844.981.414.188.928.216 1.542.086.418-.089.757-.223 1.02-.402.263-.176.45-.382.56-.619.106-.237.13-.485.076-.745a1.02 1.02 0 00-.257-.538 1.466 1.466 0 00-.508-.33 3.274 3.274 0 00-.678-.17 6.37 6.37 0 00-.79-.055l-1.141-.029a7.846 7.846 0 01-1.553-.163 4.5 4.5 0 01-1.3-.483 3.09 3.09 0 01-.966-.856 3.29 3.29 0 01-.562-1.282c-.154-.741-.101-1.423.157-2.045.256-.618.702-1.151 1.34-1.6.633-.443 1.442-.77 2.427-.978.976-.208 1.858-.24 2.646-.094.784.146 1.44.47 1.971.97.527.505.893 1.19 1.098 2.056l-2.475.526c-.113-.399-.302-.713-.564-.941a1.974 1.974 0 00-.962-.432 3.383 3.383 0 00-1.23.052c-.432.092-.795.235-1.087.429-.296.194-.509.422-.638.684a1.24 1.24 0 00-.102.831c.058.271.187.482.388.633.197.152.463.26.797.324.331.066.728.105 1.192.117l1.387.051c1.072.031 1.96.248 2.662.65.703.402 1.147 1.05 1.333 1.945.16.731.1 1.412-.177 2.043-.28.632-.735 1.175-1.363 1.629-.627.455-1.382.775-2.264.963-.897.191-1.714.204-2.448.039-.739-.164-1.353-.48-1.843-.948-.49-.467-.818-1.06-.983-1.778l2.45-.521zm-13.888-8.28l-2.57 12.093-8.148-1.732.448-2.108 5.592 1.188.612-2.881-5.173-1.1.448-2.108 5.173 1.1.614-2.888-5.616-1.194.448-2.108 8.173 1.738zm-30.212-18.07l-10.707 6.182-4.093-7.09 1.866-1.077 2.786 4.826 2.552-1.473-2.515-4.355 1.867-1.078 2.514 4.355 4.423-2.553 1.307 2.263zM6.647 55.592c1.34-.14 2.508-.006 3.502.403.994.406 1.785 1.018 2.373 1.839.583.817.932 1.767 1.046 2.852.115 1.093-.03 2.1-.435 3.02-.405.921-1.051 1.683-1.939 2.286-.888.603-2 .975-3.337 1.116-1.34.14-2.508.008-3.501-.397-.994-.406-1.783-1.017-2.366-1.834-.588-.816-.939-1.77-1.054-2.863-.114-1.085.032-2.088.437-3.008.4-.925 1.044-1.688 1.932-2.292.887-.607 2.001-.98 3.342-1.122zm.277 2.636c-.868.091-1.587.298-2.156.621-.57.319-.984.729-1.243 1.23-.259.5-.355 1.065-.29 1.693.067.629.278 1.16.636 1.597.357.435.848.752 1.472.95.623.193 1.369.244 2.237.153.869-.091 1.588-.296 2.157-.615.57-.323.983-.735 1.242-1.236.26-.5.356-1.065.29-1.693-.066-.629-.278-1.16-.635-1.597-.358-.436-.848-.75-1.471-.944-.624-.197-1.37-.25-2.239-.16zm4.262-22.8c1.283.416 2.294 1.014 3.036 1.792.743.775 1.216 1.656 1.42 2.645.2.983.132 1.994-.205 3.031-.34 1.045-.881 1.906-1.626 2.582-.744.676-1.645 1.11-2.7 1.3-1.057.19-2.224.077-3.503-.338-1.282-.417-2.295-1.013-3.037-1.787-.743-.775-1.215-1.654-1.416-2.637-.205-.985-.137-2 .202-3.045.337-1.037.878-1.894 1.622-2.57.742-.682 1.641-1.118 2.698-1.308 1.057-.194 2.227-.082 3.51.334zm-.819 2.52c-.83-.27-1.571-.373-2.222-.31-.65.06-1.195.266-1.636.618-.44.352-.758.829-.953 1.43-.195.6-.218 1.173-.069 1.716.15.544.469 1.033.958 1.467.49.43 1.151.78 1.982 1.05.83.27 1.57.375 2.22.315.652-.063 1.198-.27 1.638-.623.44-.352.758-.828.953-1.43.196-.6.219-1.173.07-1.716-.15-.544-.47-1.03-.96-1.461-.49-.434-1.15-.786-1.98-1.056zm13.608-10.347l-2.932 3.257-9.188-8.273 2.957-3.284c.832-.924 1.732-1.554 2.7-1.89a5.01 5.01 0 012.96-.12c1.011.254 1.994.811 2.948 1.67.957.862 1.617 1.784 1.979 2.765a5.02 5.02 0 01.19 2.974c-.236 1-.773 1.968-1.614 2.901zm-2.848-.184l1.111-1.234c.517-.574.85-1.148 1-1.723.149-.581.097-1.164-.156-1.75-.253-.59-.722-1.194-1.407-1.81-.679-.612-1.324-1.011-1.935-1.199-.609-.19-1.19-.18-1.747.028-.556.209-1.093.6-1.61 1.174l-1.115 1.239 5.86 5.275zM37.223 7.788c-.242-.425-.586-.687-1.03-.784-.444-.098-.953-.019-1.527.237-.39.173-.694.375-.913.605-.221.226-.36.466-.419.722-.055.253-.028.5.08.744.083.205.204.363.363.473.163.108.351.18.566.217.213.033.446.041.698.026.252-.02.513-.057.784-.111l1.123-.21a7.836 7.836 0 011.553-.162c.493 0 .95.068 1.372.202.42.134.795.346 1.122.637.332.288.604.667.817 1.136.304.693.394 1.37.271 2.034-.121.657-.447 1.271-.977 1.842-.528.566-1.252 1.053-2.17 1.462-.913.406-1.769.62-2.57.642-.797.02-1.507-.16-2.13-.539-.62-.384-1.12-.979-1.5-1.783l2.31-1.029c.194.368.444.635.748.804.306.163.65.237 1.03.222a3.38 3.38 0 001.192-.306c.405-.18.73-.396.975-.646.25-.252.41-.52.482-.802a1.242 1.242 0 00-.073-.833 1.027 1.027 0 00-.511-.54c-.224-.107-.507-.157-.848-.15a7.175 7.175 0 00-1.19.132l-1.367.239c-1.055.192-1.968.165-2.739-.082-.77-.247-1.34-.789-1.708-1.625-.308-.682-.392-1.361-.252-2.036.144-.676.475-1.302.995-1.877.519-.575 1.19-1.045 2.014-1.412.838-.373 1.634-.556 2.387-.547.756.007 1.423.188 2 .544.576.355 1.02.867 1.33 1.535l-2.288 1.019z" fill="#000"/></svg>