<svg width="45" height="45" fill="none" xmlns="http://www.w3.org/2000/svg"><circle cx="22.5" cy="22.5" r="22" stroke="#101A24"/><path d="M18 14c-2.757 0-5 2.243-5 5v8c0 2.757 2.243 5 5 5h8c2.757 0 5-2.243 5-5v-8c0-2.757-2.243-5-5-5h-8zm0 2h8c1.654 0 3 1.346 3 3v8c0 1.654-1.346 3-3 3h-8c-1.654 0-3-1.346-3-3v-8c0-1.654 1.346-3 3-3zm9 1a1 1 0 100 2 1 1 0 000-2zm-5 1c-2.757 0-5 2.243-5 5s2.243 5 5 5 5-2.243 5-5-2.243-5-5-5zm0 2c1.654 0 3 1.346 3 3s-1.346 3-3 3-3-1.346-3-3 1.346-3 3-3z" fill="#101A24"/></svg>