<svg width="198" height="55" fill="none" xmlns="http://www.w3.org/2000/svg"><g clip-path="url(#clip0_5_183)"><path d="M60.487 47V32.273h3.96v2.57h.153c.269-.915.72-1.605 1.352-2.072.633-.473 1.362-.71 2.186-.71.205 0 .425.014.662.04.237.025.444.06.623.105v3.624a5.332 5.332 0 00-.796-.154 7.14 7.14 0 00-.93-.067c-.6 0-1.137.131-1.61.393a2.894 2.894 0 00-1.113 1.074c-.268.46-.402.991-.402 1.592V47h-4.085zm17.074.288c-1.515 0-2.819-.307-3.912-.92a6.304 6.304 0 01-2.512-2.628c-.588-1.138-.882-2.483-.882-4.037 0-1.514.294-2.844.882-3.988.588-1.144 1.416-2.036 2.483-2.675 1.074-.64 2.334-.959 3.778-.959.972 0 1.876.157 2.714.47.843.307 1.578.77 2.205 1.39.633.62 1.125 1.4 1.476 2.34.352.933.528 2.026.528 3.279v1.121H71.885v-2.53h8.59c0-.589-.127-1.11-.383-1.564a2.747 2.747 0 00-1.064-1.064c-.447-.262-.968-.393-1.563-.393-.62 0-1.17.144-1.649.431a3.025 3.025 0 00-1.112 1.141c-.269.473-.406 1-.412 1.582v2.407c0 .729.134 1.358.402 1.889.275.53.662.94 1.16 1.227.499.288 1.09.432 1.774.432.454 0 .87-.064 1.247-.192.377-.128.7-.32.968-.575a2.51 2.51 0 00.614-.94l3.777.25a5.16 5.16 0 01-1.179 2.377c-.588.671-1.349 1.195-2.282 1.572-.927.371-1.997.557-3.212.557zM99.24 36.472l-3.74.23a1.933 1.933 0 00-.412-.862 2.188 2.188 0 00-.834-.624c-.339-.16-.745-.24-1.218-.24-.633 0-1.166.135-1.601.403-.435.262-.652.614-.652 1.055 0 .352.14.649.422.892.281.242.764.438 1.448.584l2.665.537c1.432.294 2.5.767 3.203 1.42.703.652 1.054 1.508 1.054 2.57 0 .964-.284 1.811-.853 2.54-.563.729-1.336 1.298-2.32 1.707-.978.402-2.106.604-3.385.604-1.95 0-3.503-.406-4.66-1.218-1.15-.818-1.825-1.93-2.023-3.337l4.018-.21c.121.594.415 1.048.882 1.36.466.308 1.064.461 1.793.461.716 0 1.29-.137 1.725-.412.442-.281.665-.643.672-1.084a1.127 1.127 0 00-.47-.91c-.307-.243-.78-.429-1.42-.557l-2.55-.508c-1.438-.287-2.508-.786-3.212-1.495-.696-.71-1.045-1.614-1.045-2.714 0-.946.256-1.76.767-2.445.518-.684 1.244-1.211 2.177-1.582.94-.37 2.039-.556 3.298-.556 1.86 0 3.324.393 4.392 1.18 1.073.785 1.7 1.856 1.879 3.211zm10.741-4.2v3.069h-8.869v-3.068h8.869zm-6.856-3.528h4.085v13.73c0 .378.057.672.172.883a.95.95 0 00.48.431c.211.083.454.125.728.125.192 0 .384-.016.576-.048.192-.039.339-.067.441-.087l.642 3.04c-.204.064-.492.137-.863.22a6.91 6.91 0 01-1.352.163c-.984.039-1.847-.092-2.588-.393-.735-.3-1.308-.767-1.717-1.4-.409-.632-.61-1.431-.604-2.397V28.744zm13.716 18.534c-.94 0-1.777-.163-2.512-.489a4.043 4.043 0 01-1.745-1.467c-.422-.652-.633-1.464-.633-2.435 0-.819.15-1.506.451-2.062.3-.556.709-1.003 1.227-1.342a5.958 5.958 0 011.764-.767 13.461 13.461 0 012.09-.364c.857-.09 1.547-.173 2.071-.25.525-.083.905-.204 1.141-.364.237-.16.355-.396.355-.71v-.057c0-.607-.192-1.077-.575-1.41-.377-.332-.914-.498-1.611-.498-.735 0-1.32.163-1.755.489-.434.32-.722.722-.862 1.208l-3.778-.307a5.14 5.14 0 011.131-2.32c.563-.659 1.288-1.164 2.177-1.515.895-.358 1.93-.537 3.106-.537.818 0 1.601.096 2.349.288a6.134 6.134 0 012.004.891c.588.403 1.052.92 1.391 1.554.338.626.508 1.377.508 2.253V47h-3.874v-2.042h-.115a4.15 4.15 0 01-.949 1.217 4.392 4.392 0 01-1.429.815c-.556.192-1.198.288-1.927.288zm1.17-2.819c.601 0 1.131-.118 1.591-.355a2.815 2.815 0 001.084-.978 2.52 2.52 0 00.393-1.39v-1.563a2.2 2.2 0 01-.527.23 9.7 9.7 0 01-.739.183c-.275.05-.549.099-.824.143l-.748.106a5.05 5.05 0 00-1.256.335c-.358.154-.636.362-.834.624-.198.255-.298.575-.298.959 0 .556.202.98.604 1.275.41.287.927.431 1.554.431zm19.737-3.73v-8.456h4.084V47h-3.921v-2.675h-.154a4.347 4.347 0 01-1.658 2.08c-.767.525-1.704.787-2.81.787-.984 0-1.85-.224-2.598-.671-.748-.448-1.333-1.084-1.755-1.908-.415-.825-.626-1.813-.632-2.963v-9.377h4.084v8.648c.006.87.24 1.557.7 2.062.46.505 1.077.757 1.85.757.493 0 .953-.112 1.381-.336.428-.23.774-.568 1.036-1.016.268-.447.399-1 .393-1.659zM145.099 47V32.273h3.96v2.57h.154c.268-.915.719-1.605 1.352-2.072.632-.473 1.361-.71 2.186-.71.204 0 .425.014.661.04.237.025.445.06.624.105v3.624a5.338 5.338 0 00-.796-.154 7.144 7.144 0 00-.93-.067c-.601 0-1.138.131-1.611.393a2.892 2.892 0 00-1.112 1.074c-.269.46-.403.991-.403 1.592V47h-4.085zm14.826.278c-.94 0-1.777-.163-2.512-.489a4.043 4.043 0 01-1.745-1.467c-.422-.652-.633-1.464-.633-2.435 0-.819.15-1.506.451-2.062.3-.556.709-1.003 1.227-1.342a5.958 5.958 0 011.764-.767 13.461 13.461 0 012.09-.364c.857-.09 1.547-.173 2.071-.25.525-.083.905-.204 1.141-.364.237-.16.355-.396.355-.71v-.057c0-.607-.192-1.077-.575-1.41-.377-.332-.914-.498-1.611-.498-.735 0-1.32.163-1.755.489-.434.32-.722.722-.862 1.208l-3.778-.307a5.14 5.14 0 011.131-2.32c.563-.659 1.288-1.164 2.177-1.515.895-.358 1.93-.537 3.106-.537.818 0 1.601.096 2.349.288a6.134 6.134 0 012.004.891c.588.403 1.052.92 1.391 1.554.338.626.508 1.377.508 2.253V47h-3.874v-2.042h-.115a4.15 4.15 0 01-.949 1.217 4.392 4.392 0 01-1.429.815c-.556.192-1.198.288-1.927.288zm1.17-2.819c.601 0 1.131-.118 1.591-.355a2.815 2.815 0 001.084-.978 2.52 2.52 0 00.393-1.39v-1.563a2.2 2.2 0 01-.527.23 9.7 9.7 0 01-.739.183c-.275.05-.549.099-.824.143l-.748.106a5.05 5.05 0 00-1.256.335c-.358.154-.636.362-.834.624-.198.255-.298.575-.298.959 0 .556.202.98.604 1.275.41.287.927.431 1.554.431zm14.377-5.973V47h-4.084V32.273h3.892v2.598h.173a4.108 4.108 0 011.639-2.033c.767-.505 1.698-.757 2.791-.757 1.022 0 1.914.224 2.675.671.76.448 1.352 1.087 1.773 1.918.422.824.633 1.809.633 2.953V47h-4.084v-8.648c.006-.902-.224-1.605-.691-2.11-.466-.511-1.109-.767-1.927-.767-.55 0-1.035.118-1.457.355a2.466 2.466 0 00-.978 1.035c-.23.448-.349.988-.355 1.62zm20.545-6.213v3.068h-8.869v-3.068h8.869zm-6.856-3.529h4.085v13.73c0 .378.057.672.173.883a.948.948 0 00.479.431c.211.083.454.125.729.125.191 0 .383-.016.575-.048.192-.039.339-.067.441-.087l.642 3.04c-.204.064-.492.137-.863.22-.37.09-.821.144-1.351.163-.985.039-1.848-.092-2.589-.393-.735-.3-1.307-.767-1.717-1.4-.409-.632-.61-1.431-.604-2.397V28.744z" fill="#101A24"/><path d="M15.286 38.072a9.643 9.643 0 100-19.286 9.643 9.643 0 000 19.286z" stroke="url(#paint0_linear_5_183)" stroke-width="3.571"/><path d="M.003 30.714c-.002.12-.003.238-.003.358C0 44.287 10.713 55 23.929 55c13.215 0 23.928-10.713 23.928-23.928 0-.12 0-.239-.002-.358H.003z" fill="url(#paint1_linear_5_183)"/><path d="M35.643 24.5a4.286 4.286 0 100-8.571 4.286 4.286 0 000 8.571z" stroke="#EAA427" stroke-width="2.143"/><path d="M27.786 10.214a4.286 4.286 0 100-8.571 4.286 4.286 0 000 8.571z" stroke="#EA7727" stroke-width="2.143"/></g><defs><linearGradient id="paint0_linear_5_183" x1="7.429" y1="20.214" x2="22.429" y2="37.714" gradientUnits="userSpaceOnUse"><stop stop-color="#EA6D27"/><stop offset="1" stop-color="#EAA827"/></linearGradient><linearGradient id="paint1_linear_5_183" x1="6.429" y1="30.714" x2="35" y2="46.429" gradientUnits="userSpaceOnUse"><stop stop-color="#FF9400"/><stop offset="1" stop-color="#EA6D27"/></linearGradient><clipPath id="clip0_5_183"><path fill="#fff" d="M0 0h198v55H0z"/></clipPath></defs></svg>